<svg xmlns="http://www.w3.org/2000/svg" x="0px" y="0px"
width="32" height="32"
viewBox="0 0 172 172"
style=" fill:#000000;"><g fill="none" fill-rule="nonzero" stroke="none" stroke-width="1" stroke-linecap="butt" stroke-linejoin="miter" stroke-miterlimit="10" stroke-dasharray="" stroke-dashoffset="0" font-family="none" font-weight="none" font-size="none" text-anchor="none" style="mix-blend-mode: normal"><path d="M0,172v-172h172v172z" fill="none"></path><g fill="#fea315"><path d="M79.50521,0c-43.72786,0 -79.50521,35.10547 -79.50521,78.83333c0,43.72787 35.10547,78.83333 78.83333,78.83333c9.32226,0 17.83268,-1.34375 26.42708,-4.92708c-0.72786,-2.85547 -1.34375,-6.4388 -1.34375,-10.75v-4.47917c-7.16667,3.58333 -15.76107,5.82292 -25.08333,5.82292c-35.83333,0 -64.5,-28.66667 -64.5,-64.5c0,-35.83333 28.66667,-64.5 64.5,-64.5c32.25,0 59.51693,24.27149 63.82813,55.09375l0.67188,-0.67187l8.51042,10.75c1.42774,1.42774 2.96745,3.58333 5.82292,7.16667c0,-2.85547 0.67188,-4.98307 0.67188,-7.83854c0,-43.72786 -35.10547,-78.83333 -78.83333,-78.83333zM78.83333,28.66667c-27.71484,0 -50.16667,22.45183 -50.16667,50.16667c0,11.53385 3.7793,22.36784 10.75,30.90625c1.23177,1.53972 3.49935,1.79167 5.03906,0.5599c1.53972,-1.23177 1.79167,-3.49935 0.5599,-5.03906c-5.9069,-7.22265 -9.18229,-16.46094 -9.18229,-26.42708c0,-23.87956 19.12044,-43 43,-43c11.08594,0 21.08008,4.17122 28.66667,10.97396l-29.33854,21.27604c-5.62695,0.33594 -10.07812,5.03906 -10.07812,10.75c0,5.9349 4.8151,10.75 10.75,10.75c5.71094,0 10.41406,-4.45117 10.75,-10.07812l21.27604,-29.33854c6.80274,7.58659 10.97396,17.58073 10.97396,28.66667c0,9.96615 -3.27539,19.20443 -9.18229,26.42708c-1.23177,1.53972 -0.97982,3.80729 0.5599,5.03906c1.53972,1.23177 3.80729,0.97982 5.03906,-0.5599c6.9707,-8.53841 10.75,-19.3724 10.75,-30.90625c0,-13.40951 -5.34701,-25.50326 -13.88542,-34.48958l5.375,-7.16667l-7.16667,5.375c-8.98633,-8.53841 -21.08008,-13.88542 -34.48958,-13.88542zM143.33333,86c0,0 -28.66667,36.64518 -28.66667,55.98958c0,16.48893 12.9056,30.01042 28.66667,30.01042c15.76107,0 28.66667,-13.52149 28.66667,-30.01042c0,-19.3444 -28.66667,-55.98958 -28.66667,-55.98958z"></path></g></g></svg>