<svg xmlns="http://www.w3.org/2000/svg" x="0px" y="0px"
width="32" height="32"
viewBox="0 0 172 172"
style=" fill:#000000;"><g fill="none" fill-rule="nonzero" stroke="none" stroke-width="1" stroke-linecap="butt" stroke-linejoin="miter" stroke-miterlimit="10" stroke-dasharray="" stroke-dashoffset="0" font-family="none" font-weight="none" font-size="none" text-anchor="none" style="mix-blend-mode: normal"><path d="M0,172v-172h172v172z" fill="none"></path><g fill="#fea315"><path d="M86,6.88c-34.15812,0 -61.92,27.76188 -61.92,61.92c0,30.6375 22.34656,56.02094 51.6,60.9525v14.7275h-61.92c-0.1075,0 -0.215,0 -0.3225,0c-1.89469,0.09406 -3.37281,1.70656 -3.27875,3.60125c0.09406,1.89469 1.70656,3.37281 3.60125,3.27875h65.36c0.14781,0.01344 0.28219,0.01344 0.43,0c0.18813,-0.02687 0.36281,-0.05375 0.5375,-0.1075c0.34938,-0.09406 0.67188,-0.24187 0.9675,-0.43c0.28219,-0.215 0.5375,-0.47031 0.7525,-0.7525c0.08063,-0.06719 0.14781,-0.13437 0.215,-0.215c0.30906,-0.48375 0.49719,-1.03469 0.5375,-1.6125c0,-0.04031 0,-0.06719 0,-0.1075c0,-0.06719 0,-0.14781 0,-0.215c0.02688,-0.25531 0.02688,-0.49719 0,-0.7525v-16.6625c1.14219,0.06719 2.28438,0.215 3.44,0.215c1.15563,0 2.29781,-0.14781 3.44,-0.215v16.34c-0.34937,1.11531 -0.1075,2.32469 0.645,3.225c0.04031,0.04031 0.06719,0.06719 0.1075,0.1075c0.18813,0.24188 0.40313,0.45688 0.645,0.645c0.04031,0 0.06719,0 0.1075,0c0.04031,0.04031 0.06719,0.06719 0.1075,0.1075c0.06719,0.04031 0.14781,0.08063 0.215,0.1075c0.04031,0.04031 0.06719,0.06719 0.1075,0.1075c0.06719,0 0.14781,0 0.215,0c0.04031,0.04031 0.06719,0.06719 0.1075,0.1075c0.06719,0 0.14781,0 0.215,0c0.04031,0 0.06719,0 0.1075,0c0.06719,0.04031 0.14781,0.08063 0.215,0.1075c0.04031,0 0.06719,0 0.1075,0c0.06719,0 0.14781,0 0.215,0c0.06719,0 0.14781,0 0.215,0c0.04031,0 0.06719,0 0.1075,0h65.36c1.23625,0.01344 2.39188,-0.63156 3.02344,-1.70656c0.61813,-1.075 0.61813,-2.39187 0,-3.46687c-0.63156,-1.075 -1.78719,-1.72 -3.02344,-1.70656h-61.92v-14.7275c29.25344,-4.93156 51.6,-30.315 51.6,-60.9525c0,-34.15812 -27.76187,-61.92 -61.92,-61.92zM86,13.76c30.43594,0 55.04,24.60406 55.04,55.04c0,30.43594 -24.60406,55.04 -55.04,55.04c-30.43594,0 -55.04,-24.60406 -55.04,-55.04c0,-30.43594 24.60406,-55.04 55.04,-55.04zM120.4,34.4c0,0 -21.51344,15.76219 -32.68,24.295c-0.57781,-0.09406 -1.11531,-0.215 -1.72,-0.215c-5.6975,0 -10.32,4.6225 -10.32,10.32c0,5.6975 4.6225,10.32 10.32,10.32c5.6975,0 10.32,-4.6225 10.32,-10.32c0,-0.60469 -0.12094,-1.14219 -0.215,-1.72c8.53281,-11.16656 24.295,-32.68 24.295,-32.68zM13.115,165.12c-1.89469,0.17469 -3.29219,1.86781 -3.1175,3.7625c0.17469,1.89469 1.86781,3.29219 3.7625,3.1175h144.48c1.23625,0.01344 2.39188,-0.63156 3.02344,-1.70656c0.61813,-1.075 0.61813,-2.39187 0,-3.46687c-0.63156,-1.075 -1.78719,-1.72 -3.02344,-1.70656h-144.48c-0.1075,0 -0.215,0 -0.3225,0c-0.1075,0 -0.215,0 -0.3225,0z"></path></g></g></svg>